<?xml version="1.0" encoding="UTF-8" standalone="no"?>
<svg width="24px" height="24px" viewBox="0 0 24 24" version="1.1" xmlns="http://www.w3.org/2000/svg" xmlns:xlink="http://www.w3.org/1999/xlink">
    <!-- Generator: Sketch 39.1 (31720) - http://www.bohemiancoding.com/sketch -->
    <title>Group</title>
    <desc>Created with Sketch.</desc>
    <defs></defs>
    <g id="Symbols" stroke="none" stroke-width="1" fill="none" fill-rule="evenodd" stroke-linejoin="round">
        <g id="footer" transform="translate(-382.000000, -101.000000)" stroke="#626262">
            <g id="Group" transform="translate(382.000000, 101.000000)">
                <path d="M23.5,12 C23.5,18.351 18.352,23.5 12,23.5 C5.648,23.5 0.5,18.351 0.5,12 C0.5,5.648 5.648,0.5 12,0.5 C18.352,0.5 23.5,5.648 23.5,12 L23.5,12 Z" id="Stroke-696" stroke-linecap="round"></path>
                <path d="M18.5,16.1655 C18.5,17.4545 17.455,18.4995 16.167,18.4995 L7.833,18.4995 C6.545,18.4995 5.5,17.4545 5.5,16.1655 L5.5,7.8315 C5.5,6.5445 6.545,5.4995 7.833,5.4995 L16.167,5.4995 C17.455,5.4995 18.5,6.5445 18.5,7.8315 L18.5,16.1655 L18.5,16.1655 Z" id="Stroke-697"></path>
                <path d="M15,12.5 C15,14.156 13.656,15.5 12,15.5 C10.343,15.5 9,14.156 9,12.5 C9,10.843 10.343,9.5 12,9.5 C13.656,9.5 15,10.843 15,12.5 L15,12.5 Z" id="Stroke-700"></path>
                <path d="M17,8.5 C17,9.052 16.552,9.5 16,9.5 C15.4476667,9.5 15,9.052 15,8.5 C15,7.94766667 15.4476667,7.5 16,7.5 C16.552,7.5 17,7.94766667 17,8.5 L17,8.5 Z" id="Stroke-700"></path>
            </g>
        </g>
    </g>
</svg>