<?xml version="1.0" encoding="UTF-8" standalone="no"?>
<svg width="25px" height="24px" viewBox="0 0 25 24" version="1.1" xmlns="http://www.w3.org/2000/svg" xmlns:xlink="http://www.w3.org/1999/xlink">
    <!-- Generator: Sketch 39.1 (31720) - http://www.bohemiancoding.com/sketch -->
    <title>Stroke 551 + Stroke 552</title>
    <desc>Created with Sketch.</desc>
    <defs></defs>
    <g id="Symbols" stroke="none" stroke-width="1" fill="none" fill-rule="evenodd" stroke-linejoin="round">
        <g id="footer" transform="translate(-424.000000, -101.000000)" stroke="#626262">
            <g id="Stroke-551-+-Stroke-552" transform="translate(424.400000, 101.000000)">
                <path d="M23.5,12 C23.5,18.351 18.352,23.5 12,23.5 C5.648,23.5 0.5,18.351 0.5,12 C0.5,5.648 5.648,0.5 12,0.5 C18.352,0.5 23.5,5.648 23.5,12 L23.5,12 Z" id="Stroke-551" stroke-linecap="round"></path>
                <path d="M15.8389,9.5 L13.4999,9.5 L13.4999,8.477 C13.4999,7.954 13.8479,7.83 14.0919,7.83 L15.4999,7.83 L15.4999,5.524 L13.1499,5.518 C10.8519,5.518 10.4999,7.237 10.4999,8.336 L10.4999,9.5 L8.4999,9.5 L8.4999,11.5 L10.4999,11.5 L10.4999,18.5 L13.4999,18.5 L13.4999,11.5 L15.5949,11.5 L15.8389,9.5 L15.8389,9.5 Z" id="Stroke-552"></path>
            </g>
        </g>
    </g>
</svg>