<?xml version="1.0" encoding="UTF-8" standalone="no"?>
<svg width="25px" height="24px" viewBox="0 0 25 24" version="1.1" xmlns="http://www.w3.org/2000/svg" xmlns:xlink="http://www.w3.org/1999/xlink">
    <!-- Generator: Sketch 39.1 (31720) - http://www.bohemiancoding.com/sketch -->
    <title>Group</title>
    <desc>Created with Sketch.</desc>
    <defs></defs>
    <g id="Symbols" stroke="none" stroke-width="1" fill="none" fill-rule="evenodd" stroke-linejoin="round">
        <g id="footer" transform="translate(-551.000000, -101.000000)" stroke="#626262">
            <g id="Group" transform="translate(551.600000, 101.000000)">
                <path d="M23.5,12 C23.5,18.351 18.352,23.5 12,23.5 C5.648,23.5 0.5,18.351 0.5,12 C0.5,5.648 5.648,0.5 12,0.5 C18.352,0.5 23.5,5.648 23.5,12 L23.5,12 Z" id="Stroke-743" stroke-linecap="round"></path>
                <path d="M12.2793,6.4556 C13.4803,7.6566 13.5393,9.5466 12.4113,10.6736 C11.2833,11.8026 9.3943,11.7436 8.1933,10.5406 C6.9913,9.3406 6.9323,7.4516 8.0603,6.3226 C9.1883,5.1946 11.0773,5.2546 12.2793,6.4556 L12.2793,6.4556 Z" id="Stroke-744"></path>
                <path d="M9.8486,5.5 L14.0406,5.5" id="Stroke-745"></path>
                <path d="M14.7119,16.3184 C14.7119,17.7484 12.7079,18.9104 10.2359,18.9104 C7.7639,18.9104 5.7599,17.7484 5.7599,16.3184 C5.7599,14.8854 7.7639,13.7254 10.2359,13.7254 C12.7079,13.7254 14.7119,14.8854 14.7119,16.3184 L14.7119,16.3184 Z" id="Stroke-746"></path>
                <path d="M11.8496,11.1045 C10.9206,13.4515 14.7116,12.7435 14.7116,16.3185" id="Stroke-747"></path>
                <path d="M17.5,7 L17.5,12" id="Stroke-748"></path>
                <path d="M20,9.5 L15,9.5" id="Stroke-749"></path>
            </g>
        </g>
    </g>
</svg>