<?xml version="1.0" encoding="UTF-8" standalone="no"?>
<svg width="25px" height="24px" viewBox="0 0 25 24" version="1.1" xmlns="http://www.w3.org/2000/svg" xmlns:xlink="http://www.w3.org/1999/xlink">
    <!-- Generator: Sketch 39.1 (31720) - http://www.bohemiancoding.com/sketch -->
    <title>Stroke 984 + Stroke 985</title>
    <desc>Created with Sketch.</desc>
    <defs></defs>
    <g id="Symbols" stroke="none" stroke-width="1" fill="none" fill-rule="evenodd" stroke-linejoin="round">
        <g id="footer" transform="translate(-509.000000, -101.000000)" stroke="#626262">
            <g id="Stroke-984-+-Stroke-985" transform="translate(509.200000, 101.000000)">
                <path d="M23.5,12 C23.5,18.351 18.352,23.5 12,23.5 C5.648,23.5 0.5,18.351 0.5,12 C0.5,5.648 5.648,0.5 12,0.5 C18.352,0.5 23.5,5.648 23.5,12 L23.5,12 Z" id="Stroke-984" stroke-linecap="round"></path>
                <path d="M8.0029,11.2148 C7.8459,10.8728 7.7539,10.4668 7.7539,9.9688 C7.7539,7.6488 9.4919,5.5688 12.2789,5.5688 C14.7469,5.5688 16.1039,7.0768 16.1039,9.0898 C16.1039,11.7388 14.9309,13.9778 13.1899,13.9778 C12.2289,13.9778 11.5079,13.1818 11.7379,12.2048 C12.0159,11.0418 12.5509,9.7848 12.5509,8.9438 C12.5509,8.1928 12.1469,7.5668 11.3109,7.5668 C10.3279,7.5668 9.5379,8.5818 9.5379,9.9438 C9.5379,10.8108 9.8319,11.3988 9.8319,11.3988 C9.8319,11.3988 8.8249,15.6598 8.6489,16.4058 C8.2989,17.8938 8.5969,19.7148 8.6219,19.8988 C8.6369,20.0088 8.7759,20.0348 8.8399,19.9508 C8.9309,19.8328 10.1019,18.3878 10.4999,16.9438 C10.6109,16.5348 11.1469,14.4178 11.1469,14.4178 C11.4649,15.0278 12.3979,15.5628 13.3909,15.5628 C16.3459,15.5628 18.3499,12.8688 18.3499,9.2658 C18.3499,6.5388 16.0409,3.9998 12.5309,3.9998 C8.1649,3.9998 5.9629,7.1298 5.9629,9.7398 C5.9629,10.5858 6.1349,11.3828 6.4899,12.0198 L8.0029,11.2148 L8.0029,11.2148 Z" id="Stroke-985"></path>
            </g>
        </g>
    </g>
</svg>