<?xml version="1.0" encoding="UTF-8" standalone="no"?>
<svg width="24px" height="24px" viewBox="0 0 24 24" version="1.1" xmlns="http://www.w3.org/2000/svg" xmlns:xlink="http://www.w3.org/1999/xlink">
    <!-- Generator: Sketch 39.1 (31720) - http://www.bohemiancoding.com/sketch -->
    <title>Stroke 1070 + Stroke 1071</title>
    <desc>Created with Sketch.</desc>
    <defs></defs>
    <g id="Symbols" stroke="none" stroke-width="1" fill="none" fill-rule="evenodd" stroke-linejoin="round">
        <g id="footer" transform="translate(-594.000000, -101.000000)" stroke="#626262">
            <g id="Stroke-1070-+-Stroke-1071" transform="translate(594.000000, 101.000000)">
                <path d="M23.5,12 C23.5,18.351 18.352,23.5 12,23.5 C5.648,23.5 0.5,18.351 0.5,12 C0.5,5.648 5.648,0.5 12,0.5 C18.352,0.5 23.5,5.648 23.5,12 L23.5,12 Z" id="Stroke-1070" stroke-linecap="round"></path>
                <path d="M17.0029,13.0371 C16.9479,12.9481 16.8029,12.8941 16.5839,12.7851 C16.3649,12.6771 15.2889,12.1521 15.0899,12.0801 C14.8889,12.0071 14.7429,11.9711 14.5979,12.1871 C14.4519,12.4041 14.0329,12.8941 13.9049,13.0371 C13.7769,13.1831 13.6499,13.2011 13.4319,13.0931 C13.2129,12.9841 12.5079,12.7551 11.6729,12.0171 C11.0229,11.4421 10.5839,10.7301 10.4559,10.5151 C10.3289,10.2991 10.4429,10.1801 10.5529,10.0721 C10.9209,9.7071 11.0119,9.5041 11.0989,9.3301 C11.1719,9.1851 11.1359,9.0581 11.0809,8.9491 C11.0259,8.8411 10.5879,7.7731 10.4059,7.3391 C10.1999,6.8471 9.2819,6.8301 8.9119,7.2301 C7.7439,8.4981 8.0149,9.9321 9.0399,11.2831 C9.1489,11.4281 10.5519,13.6901 12.7749,14.5581 C14.9979,15.4281 14.9979,15.1391 15.3989,15.1011 C16.5509,14.9981 17.3319,13.5861 17.0029,13.0371 M12.4979,3.5581 C8.3619,3.5581 4.9979,6.8961 4.9979,11.0001 C4.9979,12.6281 5.5289,14.1371 6.4269,15.3631 L5.4899,18.1271 L8.3719,17.2111 C9.5569,17.9881 10.9749,18.4421 12.4979,18.4421 C16.6339,18.4421 19.9979,15.1031 19.9979,11.0001 C19.9979,6.8961 16.6339,3.5581 12.4979,3.5581" id="Stroke-1071"></path>
            </g>
        </g>
    </g>
</svg>