<?xml version="1.0" encoding="UTF-8" standalone="no"?>
<svg width="98px" height="35px" viewBox="0 0 98 35" version="1.1" xmlns="http://www.w3.org/2000/svg" xmlns:xlink="http://www.w3.org/1999/xlink">
    <!-- Generator: Sketch 39.1 (31720) - http://www.bohemiancoding.com/sketch -->
    <title>Page 1</title>
    <desc>Created with Sketch.</desc>
    <defs>
        <polygon id="path-1" points="97.966088 34.7253945 97.966088 0.275859421 3.89486118e-21 0.275859421 0 34.7253945 97.966088 34.7253945"></polygon>
    </defs>
    <g id="Symbols" stroke="none" stroke-width="1" fill="none" fill-rule="evenodd">
        <g id="Nav-/-Header-2-hover" transform="translate(-143.000000, -17.000000)">
            <g id="Page-1" transform="translate(143.000000, 17.000000)">
                <g id="Group-3">
                    <mask id="mask-2" fill="white">
                        <use xlink:href="#path-1"></use>
                    </mask>
                    <g id="Clip-2"></g>
                    <path d="M91.4492891,29.365186 C87.0884328,29.5075272 84.4864035,27.5155944 83.1623977,25.4291425 C86.9631308,24.0873094 90.5342393,22.563471 93.1793771,22.4771098 C100.333665,22.2436252 98.2227848,29.1440789 91.4492891,29.365186 M69.3185326,14.8123457 C70.5364915,11.8808485 74.3214182,9.97105717 73.2580751,12.5303857 C72.5988023,14.1175181 70.988556,15.9212568 68.7926088,17.7233076 C68.6664446,17.0262296 68.7966323,16.0680989 69.3185326,14.8123457 M27.1736469,11.2465018 C27.0658757,8.08348911 29.7276821,4.83017695 29.821946,7.59148367 C29.8802862,9.30351633 29.1600868,11.593353 27.9047672,14.1144238 C27.4995472,13.5278993 27.2199167,12.601275 27.1736469,11.2465018 M22.4072833,25.0730082 C21.7876704,25.0932623 21.1648962,25.078353 20.5392481,25.0490971 C22.150644,23.2943058 23.6623155,21.4247414 24.9866088,19.5492695 C25.0995531,19.8598321 25.1679519,20.1951497 25.1803097,20.5594419 C25.308773,24.3247323 23.4332657,25.0395327 22.4072833,25.0730082 M5.72774076,34.3628811 C4.59944751,34.3997323 3.28463812,33.4877359 3.224861,31.7304129 C3.04524223,26.4590064 10.4992774,25.2102858 13.7821337,25.103108 C15.9677349,25.0319374 18.0030311,25.2859574 19.8400282,25.4418013 C15.2639167,30.3539791 9.93541818,34.2256034 5.72774076,34.3628811 M7.40811026,16.6163657 C6.85689619,16.6343693 6.69365865,16.2191606 6.66290792,15.3181352 C6.64767625,14.8739519 6.71377595,14.404451 6.84310147,13.9217287 C8.6234827,14.6275272 8.14526569,16.5921733 7.40811026,16.6163657 M43.8187026,3.78034029 C44.2635824,3.76571234 44.8389372,4.65239111 44.8843449,5.41135662 C43.7767437,4.84030399 43.6267261,3.78652904 43.8187026,3.78034029 M92.0344152,21.7195508 C88.80099,21.8253221 85.6279167,23.1494328 82.6393478,24.4662296 C82.3137349,23.750304 82.131817,23.0608212 82.0754886,22.4821733 C81.7688434,17.761284 87.2416117,10.9848866 89.6071191,7.87813521 C90.0212481,7.33436933 88.0376821,6.2609029 87.648556,6.69580309 C84.9936469,9.66330762 80.414949,16.5232532 80.1301455,20.7622641 C78.362122,22.3719011 75.0827144,21.9105581 76.4860399,17.2358031 C77.3973537,14.1993784 81.5573243,12.4631534 80.4577701,15.0078539 C80.291946,15.3918376 80.0663449,15.78848 79.7927496,16.1935617 C79.8758053,16.2256307 79.9568493,16.2624819 80.0330076,16.3097414 C80.269817,15.940667 80.4678287,15.5760935 80.6224446,15.21799 C82.4539812,10.9801044 75.6618053,10.7297414 73.9400516,16.4650227 C73.8719402,16.6925998 73.8179109,16.9123004 73.7707789,17.1280626 C72.6419109,19.3219737 69.559078,20.0061116 68.8822745,18.0597505 C71.0905795,16.2591062 72.7258287,14.4232985 73.4259109,12.7382713 C75.1798522,8.51698276 69.2636411,8.56367967 66.9148023,13.9433893 C65.8310545,16.0475635 64.4754358,18.0271189 63.2985736,17.7781624 C59.7490194,17.0267922 65.8876704,5.69772686 68.6428786,1.43367967 C69.013037,0.860657895 66.9515883,-0.0611842105 66.5975238,0.401565336 C64.1820106,3.55951452 60.1484915,10.7457759 60.1959109,14.9937886 C58.5575003,16.7263566 55.2582628,16.5083439 56.2911425,11.7463838 C56.962773,8.65088475 60.9747378,6.6083167 60.0772188,9.22756352 C59.9418581,9.62279946 59.7478698,10.0351951 59.507037,10.4596869 C59.5921044,10.4852858 59.6757349,10.5162296 59.7556293,10.5575817 C59.9628375,10.1719102 60.1318229,9.79355263 60.2579871,9.42504083 C61.75299,5.06225499 54.9611015,5.32105717 53.6925619,11.1682985 C53.6842276,11.2076815 53.6790545,11.244814 53.671295,11.2839156 C53.6689959,11.2211842 53.6672716,11.1666107 53.6658346,11.1275091 C53.6799167,11.5368103 52.5214475,14.4100771 50.0987496,14.4891243 C46.8567026,14.5948956 51.5951894,6.68623866 51.5776587,6.17426044 C51.5601279,5.66256352 49.1311073,4.52411525 49.1469138,4.98967786 C49.1796762,5.95765426 46.7520927,6.1644147 45.1800692,5.54328947 C45.1835179,5.51572142 45.1852422,5.48449637 45.1840927,5.4437069 C45.1803566,5.33371597 45.1746088,5.22878857 45.1679988,5.12639292 C45.1634006,4.96689201 45.1593771,4.87912432 45.1593771,4.87912432 C45.1593771,4.87912432 45.158515,4.87912432 45.1487437,4.87940563 C44.9461337,2.6452677 44.0586733,2.32063975 43.7517408,2.33076679 C43.4206674,2.34145644 42.477166,2.30404265 42.5380927,4.09540381 C42.5786147,5.28336207 43.6339109,6.06230036 44.9044622,6.43418784 C44.9099226,9.29592105 44.6682276,14.2688612 42.9139988,14.3262477 C41.4008903,14.3754764 41.2793243,10.0554492 41.1775883,7.06994102 C41.1545971,6.39199183 38.8661103,6.29044011 38.8856528,6.8682441 C38.9313478,8.20585753 38.6353361,10.8023185 39.3063918,12.695794 C38.0941806,14.6790064 34.9435238,15.147382 34.7802862,10.3620735 C34.672515,7.19934211 38.0660164,4.27318966 37.837254,7.02690109 C37.8030545,7.44239111 37.7159754,7.88826225 37.5860751,8.35691924 C37.675166,8.36198276 37.7639695,8.3721098 37.8513361,8.39348911 C37.9579578,7.97040381 38.0292305,7.5636343 38.0611308,7.17599365 C38.4419226,2.58956897 31.9124211,4.43747278 32.1158933,10.4118648 C32.1279636,10.7626543 32.1604387,11.0915018 32.2069959,11.403471 C32.2104446,13.9462024 29.5905971,15.9308212 28.1269196,14.3864474 C29.3945971,11.861157 30.1237056,9.5325 30.0616293,7.7144147 C29.9050018,3.11561252 24.4141279,5.60686479 24.6176,11.5812568 C24.6943331,13.8331171 25.7045091,15.2199592 26.9810956,15.8436162 C26.775037,16.2059392 26.5594944,16.5710753 26.3353302,16.9384619 C24.7750897,15.0193875 22.0425853,13.943108 19.8351425,13.6108848 C22.1598405,10.2487069 24.0273009,4.65182849 19.4828023,4.80035844 C16.6755765,4.89206443 14.2637994,5.7328902 12.2721865,6.93800817 C12.0118111,6.34642015 11.7750018,6.04795372 11.5948082,6.05386116 C10.8404094,6.07861615 7.97944164,9.05709165 7.99151202,9.40478675 C7.99151202,9.40478675 8.18981114,9.63236388 8.49444457,10.1285889 C7.48110733,11.2940426 6.72009853,12.5030989 6.22722463,13.5903494 C5.8794827,13.5138339 5.49409267,13.4747323 5.06789326,13.4885163 C-0.202265103,13.660676 -3.07875191,25.3084619 5.18716012,25.0384074 C5.3923566,25.0319374 6.02087859,23.9013657 5.39666745,23.9219011 C-2.1162827,24.1672005 0.0351190616,13.841275 5.1127261,13.6755853 C5.50961173,13.6626452 5.85562933,13.6871189 6.16112493,13.7380354 C5.26964106,15.784823 5.34378768,17.3621098 6.46949443,17.3255399 C8.99594018,17.2428358 8.98185806,14.6911025 6.8767261,13.7940154 C7.19113079,12.7152042 7.83545924,11.5728176 8.70308974,10.4847232 C9.71039179,12.2721461 11.4597349,16.4337976 11.7209724,24.0999682 C11.7468375,24.8530263 14.4827906,22.5603766 14.4483038,21.5462659 C14.1922393,14.0325635 13.1846499,9.20196461 12.3673126,7.16474138 C14.1129196,6.02066697 16.0617114,5.2512931 17.9173889,5.19053085 C23.0720164,5.02230944 15.9685971,14.6781624 15.2759871,14.700667 C14.6684446,14.7206397 15.6679871,15.7901679 16.6758639,16.0275907 C16.7778874,16.0627541 16.9143977,16.0796325 17.0943038,16.073725 C18.8094475,16.017745 23.54621,16.6037069 24.8466499,19.2254855 C23.4786733,21.2036343 21.9026264,23.1857214 20.2153595,25.0347505 C18.1131015,24.9174456 15.9723331,24.6296688 13.768339,24.7016833 C8.17774076,24.8842514 0.441488563,26.8958757 0.617658651,32.0668557 C0.661916716,33.3695871 1.32894897,34.8582623 5.68865572,34.7159211 C9.8081044,34.5814564 15.3759988,30.5613022 20.1512716,25.4671189 C20.9579754,25.5306942 21.7290428,25.5726089 22.4492422,25.5489791 C24.5264974,25.4811842 27.7415296,24.8988793 27.5808786,20.1793966 C27.5417935,19.033353 27.1515179,18.0448412 26.5413889,17.2051407 C26.797166,16.7921824 27.0423097,16.3811933 27.2748082,15.9738612 C29.4385677,16.8118739 32.1883155,15.5918466 32.5498522,12.7534619 C33.9595003,16.511157 38.3660516,16.2394147 39.6958053,13.5205853 C40.2507554,14.4190789 41.161207,15.0115109 42.6533361,14.9628448 C44.8481337,14.8911116 45.1639754,9.34261797 45.1820809,6.50817151 C45.7473771,6.64432396 46.3422745,6.70396098 46.9012481,6.68567604 C48.0692012,6.64741833 48.737383,6.28425136 48.737383,6.28425136 C48.7483038,6.6083167 46.7610018,9.21377949 46.862163,12.1824093 C46.9104446,13.6024456 47.5964446,15.5614655 50.0105208,15.4824183 C51.873383,15.4216561 53.059729,13.5225544 53.5046088,12.6580989 C53.3626381,17.4023367 58.1974006,18.459206 60.2913243,15.9637341 C60.5427906,17.2200499 61.3095472,18.0788793 62.8120223,18.2718557 C64.150685,18.4437341 65.3953713,17.1781352 66.4135941,15.5794691 C65.6623566,20.2058394 71.3408962,22.0115472 73.6069666,18.3241788 C73.3891249,22.7347868 77.9336235,24.0082623 80.1502628,21.7344601 C80.1813009,21.9932623 80.2321689,22.238843 80.310339,22.4658575 C80.5175472,23.2796779 80.8871308,24.1511661 81.4363331,24.9973367 C78.9032774,26.1127178 76.5196645,27.0992604 74.3665384,27.1695871 C71.1940399,27.273108 68.4043449,26.6497323 68.3350839,24.6164474 C68.2620868,22.4700771 71.3035355,23.3705399 71.5869021,23.982382 C72.0858111,25.0592241 73.097424,24.2347142 72.9045853,23.3103403 C72.7585912,22.6112931 68.0060223,21.8739882 68.0959754,24.5177087 C68.1862158,27.1614292 71.1698991,27.5679174 74.3763097,27.4632713 C76.8651073,27.3819737 79.4863918,26.6753312 82.0366909,25.8179083 C83.804427,27.9901588 86.8516235,29.7865835 91.4458405,29.636647 C94.1898405,29.5469102 98.0618463,27.9052042 97.9644211,25.0437523 C97.8577994,21.9184347 94.0720106,21.6531624 92.0344152,21.7195508" id="Fill-1" fill="#F02028" mask="url(#mask-2)"></path>
                </g>
            </g>
        </g>
    </g>
</svg>