<?xml version="1.0" encoding="UTF-8" standalone="no"?>
<svg width="166px" height="134px" viewBox="0 0 166 134" version="1.1" xmlns="http://www.w3.org/2000/svg" xmlns:xlink="http://www.w3.org/1999/xlink">
    <!-- Generator: Sketch 3.7 (28169) - http://www.bohemiancoding.com/sketch -->
    <title>gallery</title>
    <desc>Created with Sketch.</desc>
    <defs></defs>
    <g id="Welcome" stroke="none" stroke-width="1" fill="none" fill-rule="evenodd">
        <g id="elementos" transform="translate(-255.000000, -1092.000000)">
            <g id="gallery" transform="translate(255.000000, 1092.000000)">
                <g id="Group">
                    <path d="M149.764706,134 L39.4117647,134 C30.7411765,134 23.6470588,126.905882 23.6470588,118.235294 L23.6470588,39.4117647 C23.6470588,30.7411765 30.7411765,23.6470588 39.4117647,23.6470588 L149.764706,23.6470588 C158.435294,23.6470588 165.529412,30.7411765 165.529412,39.4117647 L165.529412,118.235294 C165.529412,126.905882 158.435294,134 149.764706,134 L149.764706,134 Z" id="Shape" fill="#979797"></path>
                    <path d="M126.117647,110.352941 L15.7647059,110.352941 C7.09411765,110.352941 0,103.258824 0,94.5882353 L0,15.7647059 C0,7.09411765 7.09411765,0 15.7647059,0 L126.117647,0 C134.788235,0 141.882353,7.09411765 141.882353,15.7647059 L141.882353,94.5882353 C141.882353,103.258824 134.788235,110.352941 126.117647,110.352941 L126.117647,110.352941 Z" id="Shape" fill="#D8D8D8"></path>
                    <ellipse id="Oval" fill="#F8F8F8" cx="106.411765" cy="31.5294118" rx="11.8235294" ry="11.8235294"></ellipse>
                    <polygon id="Shape" fill="#727070" points="55.1764706 39.0176471 19.7058824 90.6470588 90.6470588 90.6470588"></polygon>
                    <polygon id="Shape" fill="#979797" points="98.5294118 61.0882353 74.8823529 90.6470588 122.176471 90.6470588"></polygon>
                </g>
            </g>
        </g>
    </g>
</svg>