<?xml version="1.0" encoding="utf-8"?>
<!-- Generator: Adobe Illustrator 18.0.0, SVG Export Plug-In . SVG Version: 6.00 Build 0)  -->
<!DOCTYPE svg PUBLIC "-//W3C//DTD SVG 1.1//EN" "http://www.w3.org/Graphics/SVG/1.1/DTD/svg11.dtd">
<svg version="1.1" id="Layer_1" xmlns="http://www.w3.org/2000/svg" xmlns:xlink="http://www.w3.org/1999/xlink" x="0px" y="0px"
	 viewBox="0 0 64 64" enable-background="new 0 0 64 64" xml:space="preserve">
<g>
	<g id="XMLID_33_">
		<g>
			<g>
				<path fill="#4FCCFC" d="M63,10v44h-1L45.9,39l-7.5,8l-15-17L2,54H1V10H63z M52,23c0-3.3-2.7-6-6-6s-6,2.7-6,6s2.7,6,6,6
					S52,26.3,52,23z"/>
			</g>
			<g>
				<polygon fill="#3EB778" points="62,54 2,54 23.4,30 38.4,47 45.9,39 				"/>
			</g>
			<g>
				<path fill="#FFD833" d="M46,17c3.3,0,6,2.7,6,6s-2.7,6-6,6s-6-2.7-6-6S42.7,17,46,17z"/>
			</g>
		</g>
		<g>
			<path fill="#2C2C3D" d="M63,9H1c-0.6,0-1,0.4-1,1v44c0,0.6,0.4,1,1,1h62c0.6,0,1-0.4,1-1V10C64,9.4,63.6,9,63,9z M62,11v41.6
				L46.6,38.3c-0.4-0.4-1-0.4-1.4,0l-6.7,7.2L24.2,29.3C24,29.1,23.7,29,23.4,29c-0.3,0-0.6,0.1-0.7,0.3L2,52.5V11H62z M59.5,53H4.2
				l19.2-21.5l14.3,16.2c0.2,0.2,0.5,0.3,0.7,0.3c0.3,0,0.6-0.1,0.7-0.3l6.8-7.3L59.5,53z"/>
			<path fill="#2C2C3D" d="M46,30c3.9,0,7-3.1,7-7s-3.1-7-7-7s-7,3.1-7,7S42.1,30,46,30z M46,18c2.8,0,5,2.2,5,5s-2.2,5-5,5
				s-5-2.2-5-5S43.2,18,46,18z"/>
		</g>
	</g>
</g>
</svg>
