<?xml version="1.0" encoding="UTF-8" standalone="no"?>
<svg width="138px" height="138px" viewBox="0 0 138 138" version="1.1" xmlns="http://www.w3.org/2000/svg" xmlns:xlink="http://www.w3.org/1999/xlink">
    <!-- Generator: Sketch 3.7 (28169) - http://www.bohemiancoding.com/sketch -->
    <title>stack_of_photos</title>
    <desc>Created with Sketch.</desc>
    <defs></defs>
    <g id="Welcome" stroke="none" stroke-width="1" fill="none" fill-rule="evenodd">
        <g id="elementos" transform="translate(-871.000000, -1557.000000)">
            <g id="stack_of_photos" transform="translate(871.000000, 1557.000000)">
                <g id="Group">
                    <rect id="Rectangle-path" fill="#484949" transform="translate(76.669610, 76.696434) rotate(18.543669) translate(-76.669610, -76.696434) " x="28.5274091" y="28.5542334" width="96.2844014" height="96.2844014"></rect>
                    <rect id="Rectangle-path" fill="#727070" transform="translate(77.717137, 73.679034) rotate(18.054552) translate(-77.717137, -73.679034) " x="39.8783932" y="39.2801766" width="75.6774867" height="68.7977152"></rect>
                    <rect id="Rectangle-path" fill="#979797" transform="translate(62.277980, 62.158302) rotate(10.433025) translate(-62.277980, -62.158302) " x="14.154514" y="14.0348359" width="96.246933" height="96.246933"></rect>
                    <rect id="Rectangle-path" fill="#C1C1C1" transform="translate(62.946183, 59.214841) rotate(10.074333) translate(-62.946183, -59.214841) " x="25.1008406" y="24.8099848" width="75.6906846" height="68.8097133"></rect>
                    <rect id="Rectangle-path" fill="#CECECE" x="0" y="0" width="96.2926829" height="96.2926829"></rect>
                    <rect id="Rectangle-path" fill="#E8E8E8" x="10.3170732" y="10.3170732" width="75.6585366" height="68.7804878"></rect>
                    <path d="M41.2682927,30.9512195 C41.2682927,27.1682927 44.3634146,24.0731707 48.1463415,24.0731707 C51.9292683,24.0731707 55.0243902,27.1682927 55.0243902,30.9512195 C55.0243902,34.7341463 48.1463415,44.7073171 48.1463415,44.7073171 C48.1463415,44.7073171 41.2682927,34.7341463 41.2682927,30.9512195 L41.2682927,30.9512195 Z" id="Shape" fill="#FFFFFF"></path>
                    <path d="M55.0243902,58.4634146 C55.0243902,62.2463415 51.9292683,65.3414634 48.1463415,65.3414634 C44.3634146,65.3414634 41.2682927,62.2463415 41.2682927,58.4634146 C41.2682927,54.6804878 48.1463415,44.7073171 48.1463415,44.7073171 C48.1463415,44.7073171 55.0243902,54.6804878 55.0243902,58.4634146 L55.0243902,58.4634146 Z" id="Shape" fill="#FFFFFF"></path>
                    <path d="M32.6707317,43.6756098 C29.2317073,41.6121951 28.2,37.4853659 30.2634146,34.3902439 C32.3268293,30.9512195 36.4536585,29.9195122 39.5487805,31.9829268 C42.9878049,34.0463415 48.1463415,44.7073171 48.1463415,44.7073171 C48.1463415,44.7073171 36.1097561,45.7390244 32.6707317,43.6756098 L32.6707317,43.6756098 Z" id="Shape" fill="#FFFFFF"></path>
                    <path d="M63.6219512,45.7390244 C67.0609756,47.802439 68.0926829,51.9292683 66.0292683,55.0243902 C63.9658537,58.4634146 59.8390244,59.495122 56.7439024,57.4317073 C53.304878,55.7121951 48.1463415,44.7073171 48.1463415,44.7073171 C48.1463415,44.7073171 60.1829268,43.6756098 63.6219512,45.7390244 L63.6219512,45.7390244 Z" id="Shape" fill="#FFFFFF"></path>
                    <path d="M63.6219512,43.6756098 C67.0609756,41.6121951 68.0926829,37.4853659 66.0292683,34.3902439 C63.9658537,30.9512195 59.8390244,29.9195122 56.7439024,31.9829268 C53.304878,33.702439 48.1463415,44.7073171 48.1463415,44.7073171 C48.1463415,44.7073171 60.1829268,45.7390244 63.6219512,43.6756098 L63.6219512,43.6756098 Z" id="Shape" fill="#FFFFFF"></path>
                    <path d="M32.6707317,45.7390244 C29.2317073,47.802439 28.2,51.9292683 30.2634146,55.0243902 C32.3268293,58.4634146 36.4536585,59.495122 39.5487805,57.4317073 C42.9878049,55.3682927 48.1463415,44.7073171 48.1463415,44.7073171 C48.1463415,44.7073171 36.1097561,43.6756098 32.6707317,45.7390244 L32.6707317,45.7390244 Z" id="Shape" fill="#FFFFFF"></path>
                    <circle id="Oval" fill="#979797" cx="48.1463415" cy="44.7073171" r="6.87804878"></circle>
                </g>
            </g>
        </g>
    </g>
</svg>