<?xml version="1.0" encoding="UTF-8" standalone="no"?>
<svg width="64px" height="46px" viewBox="0 0 64 46" version="1.1" xmlns="http://www.w3.org/2000/svg" xmlns:xlink="http://www.w3.org/1999/xlink">
    <!-- Generator: Sketch 39.1 (31720) - http://www.bohemiancoding.com/sketch -->
    <title>placeholder</title>
    <desc>Created with Sketch.</desc>
    <defs></defs>
    <g id="Page-1" stroke="none" stroke-width="1" fill="none" fill-rule="evenodd">
        <g id="placeholder">
            <g id="XMLID_33_">
                <g id="Group" transform="translate(1.000000, 1.000000)" fill="#F2F2F2">
                    <path d="M62,0 L62,44 L61,44 L44.9,29 L37.4,37 L22.4,20 L1,44 L0,44 L0,0 L62,0 L62,0 Z M51,13 C51,9.7 48.3,7 45,7 C41.7,7 39,9.7 39,13 C39,16.3 41.7,19 45,19 C48.3,19 51,16.3 51,13 L51,13 Z" id="Shape"></path>
                    <polygon id="Shape" points="61 44 1 44 22.4 20 37.4 37 44.9 29"></polygon>
                    <path d="M45,7 C48.3,7 51,9.7 51,13 C51,16.3 48.3,19 45,19 C41.7,19 39,16.3 39,13 C39,9.7 41.7,7 45,7 L45,7 Z" id="Shape" opacity="0.200000003"></path>
                </g>
                <g id="Group" fill="#AAAAAA">
                    <path d="M63,0 L1,0 C0.4,0 0,0.4 0,1 L0,45 C0,45.6 0.4,46 1,46 L63,46 C63.6,46 64,45.6 64,45 L64,1 C64,0.4 63.6,0 63,0 L63,0 Z M62,2 L62,43.6 L46.6,29.3 C46.2,28.9 45.6,28.9 45.2,29.3 L38.5,36.5 L24.2,20.3 C24,20.1 23.7,20 23.4,20 C23.1,20 22.8,20.1 22.7,20.3 L2,43.5 L2,2 L62,2 L62,2 Z M59.5,44 L4.2,44 L23.4,22.5 L37.7,38.7 C37.9,38.9 38.2,39 38.4,39 C38.7,39 39,38.9 39.1,38.7 L45.9,31.4 L59.5,44 L59.5,44 Z" id="Shape"></path>
                    <path d="M46,21 C49.9,21 53,17.9 53,14 C53,10.1 49.9,7 46,7 C42.1,7 39,10.1 39,14 C39,17.9 42.1,21 46,21 L46,21 Z M46,9 C48.8,9 51,11.2 51,14 C51,16.8 48.8,19 46,19 C43.2,19 41,16.8 41,14 C41,11.2 43.2,9 46,9 L46,9 Z" id="Shape"></path>
                </g>
            </g>
        </g>
    </g>
</svg>