<?xml version="1.0" encoding="UTF-8" standalone="no"?>
<svg width="20px" height="18px" viewBox="0 0 20 18" version="1.1" xmlns="http://www.w3.org/2000/svg" xmlns:xlink="http://www.w3.org/1999/xlink">
    <!-- Generator: Sketch 39.1 (31720) - http://www.bohemiancoding.com/sketch -->
    <title>Group</title>
    <desc>Created with Sketch.</desc>
    <defs></defs>
    <g id="Symbols" stroke="none" stroke-width="1" fill="none" fill-rule="evenodd" stroke-linejoin="round">
        <g id="Nav-/-Header-2-hover" transform="translate(-1041.000000, -27.000000)" stroke="#000000">
            <g id="Group" transform="translate(1042.000000, 28.000000)">
                <path d="M18.8,0.4 L16.7528,0.4 C16.552,0.4 16.3816,0.5496 16.356,0.7504 L16.0872,2.8992 C16.0376,3.3 15.6968,3.6 15.2936,3.6 L1.6,3.6 C1.2184,3.6 0.8592,3.7816 0.6328,4.0888 C0.4072,4.3968 0.3408,4.7944 0.4544,5.1576 L1.7048,9.1576 C1.8608,9.66 2.3248,10 2.8504,10 L14.4,10 C14.8416,10 15.2,10.3576 15.2,10.8 C15.2,11.2424 14.8416,11.6 14.4,11.6 L3.2,11.6" id="Stroke-1463" stroke-linecap="round"></path>
                <path d="M15.6,5.2 L15.2,8.8" id="Stroke-1464" stroke-linecap="round"></path>
                <path d="M6,14.4 C6,15.0624 5.4624,15.6 4.8,15.6 C4.1376,15.6 3.6,15.0624 3.6,14.4 C3.6,13.7376 4.1376,13.2 4.8,13.2 C5.4624,13.2 6,13.7376 6,14.4 L6,14.4 Z" id="Stroke-1465"></path>
                <path d="M14.8,14.4 C14.8,15.0624 14.2624,15.6 13.6,15.6 C12.9376,15.6 12.4,15.0624 12.4,14.4 C12.4,13.7376 12.9376,13.2 13.6,13.2 C14.2624,13.2 14.8,13.7376 14.8,14.4 L14.8,14.4 Z" id="Stroke-1466"></path>
            </g>
        </g>
    </g>
</svg>